<?xml version="1.0" encoding="UTF-8"?>
<!DOCTYPE svg PUBLIC "-//W3C//DTD SVG 1.1//EN" "http://www.w3.org/Graphics/SVG/1.1/DTD/svg11.dtd">
<svg xmlns="http://www.w3.org/2000/svg" version="1.1" width="850px" height="850px" style="shape-rendering:geometricPrecision; text-rendering:geometricPrecision; image-rendering:optimizeQuality; fill-rule:evenodd; clip-rule:evenodd" xmlns:xlink="http://www.w3.org/1999/xlink">
<g><path style="opacity:1" fill="#0d3635" d="M 370.5,205.5 C 418.206,205.275 465.873,206.442 513.5,209C 525.156,210.427 536.823,211.76 548.5,213C 568.601,218.442 588.934,222.775 609.5,226C 626.55,230.024 642.884,236.024 658.5,244C 721.441,262.856 766.608,302.023 794,361.5C 798.76,372.688 801.427,384.354 802,396.5C 802.667,431.833 802.667,467.167 802,502.5C 798.346,529.471 788.346,553.804 772,575.5C 749.598,604.88 720.765,625.38 685.5,637C 669.992,640.107 654.325,641.774 638.5,642C 610.148,642.868 581.815,642.535 553.5,641C 534.791,638.146 517.791,631.146 502.5,620C 483.721,606.554 467.554,590.388 454,571.5C 438.557,554.543 421.057,552.043 401.5,564C 390.574,577.596 378.908,590.596 366.5,603C 350.673,617.153 333.006,628.486 313.5,637C 307.268,638.808 300.935,640.141 294.5,641C 259.837,642.953 225.17,642.953 190.5,641C 152.774,637.135 120.44,621.968 93.5,595.5C 72.3261,574.848 57.4928,550.181 49,521.5C 47.4591,515.254 46.4591,508.921 46,502.5C 45.3333,467.833 45.3333,433.167 46,398.5C 48.199,377.151 54.5324,357.151 65,338.5C 95.1904,292.993 136.024,260.826 187.5,242C 224.668,227.835 263.001,218.169 302.5,213C 325.264,209.986 347.931,207.486 370.5,205.5 Z M 386.5,240.5 C 454.892,238.273 522.559,244.106 589.5,258C 627.578,266.546 663.245,280.879 696.5,301C 726,319.827 747.5,345.327 761,377.5C 765.748,390.732 768.081,404.398 768,418.5C 769.831,447.218 769.165,475.885 766,504.5C 753.077,554.092 722.243,586.925 673.5,603C 661.926,605.138 650.26,606.471 638.5,607C 611.114,608.088 583.78,607.421 556.5,605C 540.857,601.786 526.857,595.119 514.5,585C 501.243,573.298 489.243,560.465 478.5,546.5C 457.479,523.656 431.812,516.156 401.5,524C 388.557,528.393 377.724,535.893 369,546.5C 354.726,567.107 336.893,583.94 315.5,597C 301.01,603.899 285.677,607.232 269.5,607C 249.5,607.667 229.5,607.667 209.5,607C 151.933,604.404 111.433,576.904 88,524.5C 84.8494,515.714 82.516,506.714 81,497.5C 80.0221,482.008 79.1888,466.508 78.5,451C 73.3545,397.377 90.3545,352.71 129.5,317C 155.156,297.079 183.489,281.745 214.5,271C 248.474,260.174 283.141,252.174 318.5,247C 341.292,244.55 363.959,242.383 386.5,240.5 Z M 283.5,344.5 C 284.873,344.343 286.207,344.51 287.5,345C 289,347.833 291.167,350 294,351.5C 294.953,353.455 296.287,355.122 298,356.5C 298.667,357.5 298.667,358.5 298,359.5C 266.857,391.309 235.023,422.476 202.5,453C 200.365,453.635 198.365,453.301 196.5,452C 192.508,449.008 188.842,445.674 185.5,442C 218.089,409.244 250.755,376.744 283.5,344.5 Z M 210.5,356.5 C 211.552,356.351 212.552,356.517 213.5,357C 217.333,360.833 221.167,364.667 225,368.5C 225.667,369.5 225.667,370.5 225,371.5C 209.332,387.502 193.332,403.168 177,418.5C 172.167,413.667 167.333,408.833 162.5,404C 177.676,387.324 193.676,371.49 210.5,356.5 Z"/></g>
<g><path style="opacity:1" fill="#0d3635" d="M 406.5,285.5 C 469.654,284.573 531.987,291.073 593.5,305C 621.897,312.539 648.564,323.873 673.5,339C 690.136,350.634 703.636,365.134 714,382.5C 719.605,396.241 722.605,410.574 723,425.5C 724.253,450.937 723.253,476.271 720,501.5C 711.994,522.167 698.828,538.667 680.5,551C 674.304,554.762 667.638,557.428 660.5,559C 628.187,561.795 595.854,562.129 563.5,560C 558.611,558.557 553.945,556.557 549.5,554C 545.833,551 542.167,548 538.5,545C 525.919,531.077 513.252,517.077 500.5,503C 471.973,479.728 439.307,471.062 402.5,477C 378.367,481.148 357.867,491.981 341,509.5C 328.098,525.731 313.932,540.564 298.5,554C 291.887,558.489 284.554,560.822 276.5,561C 248.818,561.815 221.151,561.482 193.5,560C 180.272,558.55 168.605,553.55 158.5,545C 148.577,536.67 140.41,526.837 134,515.5C 132.274,511.047 130.274,506.714 128,502.5C 127.05,495.193 126.383,487.86 126,480.5C 109.482,412.092 131.649,361.258 192.5,328C 245.358,305.023 300.691,291.689 358.5,288C 374.675,287.494 390.675,286.661 406.5,285.5 Z M 283.5,344.5 C 250.755,376.744 218.089,409.244 185.5,442C 188.842,445.674 192.508,449.008 196.5,452C 198.365,453.301 200.365,453.635 202.5,453C 235.023,422.476 266.857,391.309 298,359.5C 298.667,358.5 298.667,357.5 298,356.5C 296.287,355.122 294.953,353.455 294,351.5C 291.167,350 289,347.833 287.5,345C 286.207,344.51 284.873,344.343 283.5,344.5 Z M 210.5,356.5 C 193.676,371.49 177.676,387.324 162.5,404C 167.333,408.833 172.167,413.667 177,418.5C 193.332,403.168 209.332,387.502 225,371.5C 225.667,370.5 225.667,369.5 225,368.5C 221.167,364.667 217.333,360.833 213.5,357C 212.552,356.517 211.552,356.351 210.5,356.5 Z"/></g>
</svg>
